<?xml version="1.0" encoding="UTF-8" standalone="no"?>
<!-- Created with Inkscape (http://www.inkscape.org/) -->

<svg
   width="700"
   height="300"
   viewBox="0 0 185.20833 79.375002"
   version="1.1"
   id="svg965"
   inkscape:version="1.1 (c68e22c387, 2021-05-23)"
   sodipodi:docname="logo.svg"
   xmlns:inkscape="http://www.inkscape.org/namespaces/inkscape"
   xmlns:sodipodi="http://sodipodi.sourceforge.net/DTD/sodipodi-0.dtd"
   xmlns="http://www.w3.org/2000/svg"
   xmlns:svg="http://www.w3.org/2000/svg">
  <sodipodi:namedview
     id="namedview967"
     pagecolor="#505050"
     bordercolor="#eeeeee"
     borderopacity="1"
     inkscape:pageshadow="0"
     inkscape:pageopacity="0"
     inkscape:pagecheckerboard="0"
     inkscape:document-units="mm"
     showgrid="false"
     units="px"
     inkscape:zoom="0.66772387"
     inkscape:cx="414.09333"
     inkscape:cy="225.39257"
     inkscape:window-width="1366"
     inkscape:window-height="715"
     inkscape:window-x="-8"
     inkscape:window-y="-8"
     inkscape:window-maximized="1"
     inkscape:current-layer="layer1" />
  <defs
     id="defs962" />
  <g
     inkscape:label="Camada 1"
     inkscape:groupmode="layer"
     id="layer1">
    <g
       id="g1440"
       style="display:inline;fill:#000000;fill-opacity:1"
       transform="translate(5.5512351,-33.403476)">
      <path
         id="path1371"
         style="display:inline;fill:#000000;fill-opacity:1;stroke:none;stroke-width:0.999999px;stroke-linecap:butt;stroke-linejoin:miter;stroke-opacity:1"
         d="m 112.8125,208.38867 c -6.37054,-0.0526 -12.71762,1.3106 -13.3125,4.24805 -1.937231,1.00905 -3.778199,2.11341 -4.544922,4.29297 l -3.03125,13.38476 c -9.769281,7.75401 -17.127805,17.36362 -18.183594,31.82032 l -7.208984,57.63671 c -2.348935,43.34598 35.70206,40.82316 49.20117,15.48047 l 12.05274,-20.33789 c 19.25011,14.11884 33.41609,9.18635 43.18359,-7.82812 h 10.62695 2 10.62696 c 9.7675,17.01447 23.93347,21.94696 43.18359,7.82812 l 12.05078,20.33789 c 13.49911,25.34269 51.55205,27.86551 49.20313,-15.48047 l -7.21094,-57.63671 c -1.05579,-14.4567 -8.41431,-24.06631 -18.1836,-31.82032 l -3.02929,-13.38476 c -0.76672,-2.17956 -2.60965,-3.28392 -4.54688,-4.29297 -1.18975,-5.87491 -25.38374,-5.45432 -26.76757,0 -3.07783,1.10485 -4.74147,3.1517 -5.68165,5.68164 l -3.00585,11.21094 h -45.62891 -4.01953 -45.63086 l -3.00391,-11.21094 c -0.94017,-2.52994 -2.60382,-4.57679 -5.68164,-5.68164 -0.69199,-2.72716 -7.08649,-4.19548 -13.45703,-4.24805 z m 140.59961,22.07422 c 5.78279,0 10.49805,4.71331 10.49805,10.49609 0,5.78279 -4.71526,10.50586 -10.49805,10.50586 -5.78278,0 -10.50391,-4.72307 -10.50391,-10.50586 0,-5.78278 4.72113,-10.49609 10.50391,-10.49609 z m 0,2.72266 c -4.31006,0 -7.7793,3.46337 -7.7793,7.77343 0,4.31007 3.46924,7.78125 7.7793,7.78125 4.31006,0 7.77344,-3.47118 7.77344,-7.78125 0,-4.31006 -3.46338,-7.77343 -7.77344,-7.77343 z m -141.29688,6.04687 h 0.002 c 1.33547,0.0199 2.64574,0.19786 3.84765,0.55274 1.20191,0.35487 2.29415,0.88633 3.19336,1.61718 l 0.45899,0.37696 0.0293,0.59765 c 0.0778,1.87631 0.14536,3.80137 -0.0117,5.72461 -0.0785,0.96163 -0.21365,1.92189 -0.43165,2.87696 -0.21786,0.95506 -0.5184,1.90352 -0.92968,2.83984 l -0.082,0.19336 -0.14063,0.1543 c -0.88727,0.99796 -1.80896,1.85053 -2.74414,2.60742 -0.93518,0.75689 -1.88446,1.41746 -2.82226,2.03515 l -0.73047,0.48047 -0.72266,-0.48047 c -0.93811,-0.6178 -1.88708,-1.2802 -2.82227,-2.03711 -0.93518,-0.7569 -1.85704,-1.60769 -2.74414,-2.60546 l -0.14062,-0.1543 -0.0801,-0.19336 c -0.61692,-1.4045 -0.98585,-2.84017 -1.19726,-4.2832 -0.21155,-1.44304 -0.2667,-2.89357 -0.25782,-4.32422 0.006,-0.95303 0.0431,-1.8952 0.082,-2.83399 l 0.0293,-0.65625 0.53906,-0.37695 c 1.10427,-0.76709 2.35471,-1.30547 3.66407,-1.64648 1.30935,-0.34102 2.67624,-0.48477 4.01171,-0.46485 z m 122.36329,10.03906 c 5.78278,0 10.49609,4.71526 10.49609,10.49805 0,5.78278 -4.71331,10.49609 -10.49609,10.49609 -5.78279,0 -10.50391,-4.71331 -10.50391,-10.49609 0,-5.78279 4.72112,-10.49805 10.50391,-10.49805 z m 37.61718,0.125 c 5.78279,0 10.50586,4.71526 10.50586,10.49805 0,5.78278 -4.72307,10.50391 -10.50586,10.50391 -5.78278,0 -10.49609,-4.72113 -10.49609,-10.50391 0,-5.78279 4.71331,-10.49805 10.49609,-10.49805 z m -37.61718,2.59961 c -4.31007,0 -7.77344,3.46338 -7.77344,7.77344 0,4.31006 3.46337,7.77149 7.77344,7.77149 4.31006,0 7.77343,-3.46143 7.77343,-7.77149 0,-4.31006 -3.46337,-7.77344 -7.77343,-7.77344 z m 37.61718,0.125 c -4.31006,0 -7.77148,3.46338 -7.77148,7.77344 0,4.31006 3.46142,7.77344 7.77148,7.77344 4.31007,0 7.77344,-3.46338 7.77344,-7.77344 0,-4.31006 -3.46337,-7.77344 -7.77344,-7.77344 z M 95.720703,252.9043 c 2.86131,-0.0177 5.798547,0.21928 8.607417,1.45312 l 0.18555,0.082 0.16211,0.14063 c 1.99555,1.7742 3.40695,3.68812 4.64258,5.56445 l 0.48047,0.72461 -0.48047,0.73047 c -1.23538,1.87588 -2.64665,3.79186 -4.64258,5.56641 l -0.16211,0.14062 -0.18555,0.0801 c -3.74516,1.64512 -7.696612,1.52865 -11.449214,1.37305 l -0.597656,-0.0215 -0.376953,-0.46484 c -1.461695,-1.79842 -2.130086,-4.37202 -2.169922,-7.04297 -0.03984,-2.67095 0.577146,-5.4692 2.111328,-7.67774 l 0.376953,-0.53906 0.65625,-0.0293 c 0.938786,-0.0389 1.888767,-0.074 2.841797,-0.0801 z m 31.728517,0.1914 c 0.95303,0.006 1.90301,0.0412 2.8418,0.0801 l 0.65625,0.0234 0.37695,0.53906 c 1.53418,2.20854 2.15116,5.01264 2.11133,7.6836 -0.0399,2.67085 -0.70823,5.24455 -2.16993,7.04296 l -0.37695,0.45704 -0.59765,0.0293 c -3.75261,0.15562 -7.69808,0.27208 -11.44336,-1.37305 l -0.19141,-0.0879 -0.1543,-0.13281 c -1.99592,-1.77454 -3.41501,-3.69052 -4.65039,-5.5664 l -0.47265,-0.73047 0.47265,-0.73047 c 1.23562,-1.87623 2.65485,-3.78439 4.65039,-5.5586 l 0.1543,-0.14062 0.19141,-0.082 c 2.809,-1.23385 5.74026,-1.47089 8.60156,-1.45313 z m -31.712892,2.45703 c -0.610507,0.004 -1.237048,0.0308 -1.861328,0.0527 -0.921479,1.56606 -1.520471,3.56631 -1.490234,5.58789 0.02958,1.98293 0.655607,3.6758 1.402343,4.83594 3.33148,0.11663 6.506211,0.1342 9.292971,-1.04102 1.39914,-1.28064 2.43751,-2.67403 3.42578,-4.11133 -0.99088,-1.44116 -2.02678,-2.84266 -3.43164,-4.12695 -2.25263,-0.94801 -4.702737,-1.21352 -7.337892,-1.19727 z m 103.734372,0.084 c 0.18772,0.007 0.30612,0.0511 0.41992,0.0664 0.22778,0.0307 0.41548,0.0704 0.61329,0.11719 0.39561,0.0935 0.83666,0.21528 1.34179,0.3711 1.01025,0.31163 2.24923,0.74278 3.47657,1.18945 1.22733,0.44666 2.43428,0.90862 3.36328,1.30273 0.46449,0.19706 0.85331,0.37518 1.17578,0.54297 0.16123,0.0839 0.30298,0.16005 0.45508,0.26758 0.15209,0.10754 0.47693,0.1787 0.46289,0.71484 -0.014,0.53616 -0.33845,0.60445 -0.4961,0.70899 -0.15764,0.10454 -0.30711,0.17512 -0.47265,0.25586 -0.33109,0.16147 -0.73441,0.33155 -1.20899,0.51953 -0.94915,0.37595 -2.17764,0.81949 -3.42773,1.24219 -1.2501,0.4227 -2.5091,0.82134 -3.53516,1.11328 -0.51303,0.14597 -0.96492,0.26572 -1.36523,0.35156 -0.20016,0.0429 -0.38402,0.0792 -0.61328,0.10547 -0.22927,0.0263 -0.48529,0.16022 -1.24219,-0.11524 -0.75693,-0.27537 -0.69159,-0.47998 -0.76172,-0.61523 -0.0701,-0.13525 -0.10055,-0.24945 -0.13281,-0.37695 -0.0645,-0.25501 -0.10226,-0.5527 -0.13282,-0.89649 -0.061,-0.68758 -0.0794,-1.55055 -0.0566,-2.41992 0.0228,-0.86936 0.0847,-1.73973 0.18164,-2.42578 0.0485,-0.34303 0.1038,-0.63699 0.18165,-0.89063 0.0389,-0.12673 0.081,-0.23922 0.1582,-0.37304 0.0772,-0.13383 0.0143,-0.34283 0.78515,-0.60352 0.38547,-0.13034 0.64236,-0.1597 0.83008,-0.15234 z m -72.03711,0.10156 c -2.63257,-0.0163 -5.07922,0.25747 -7.33007,1.20313 -1.40494,1.28371 -2.44284,2.67863 -3.4336,4.11914 0.98829,1.43735 2.01877,2.83846 3.41797,4.11914 2.78673,1.1752 5.96347,1.14984 9.29492,1.0332 0.74661,-1.16017 1.38068,-2.84541 1.41016,-4.82812 0.0302,-2.02408 -0.56844,-4.02903 -1.49219,-5.59571 -0.62675,-0.0222 -1.25431,-0.0466 -1.86719,-0.0508 z m 28.94922,0.25781 a 1.3229669,1.3229669 0 0 1 0.002,0 1.3229669,1.3229669 0 0 1 0.0449,0 h 9.82617 a 1.3229669,1.3229669 0 0 1 1.32031,1.32227 v 6.07422 a 1.3229669,1.3229669 0 0 1 -1.32031,1.32226 h -9.82617 a 1.3229669,1.3229669 0 0 1 -1.32227,-1.32226 v -6.07422 a 1.3229669,1.3229669 0 0 1 1.27539,-1.32227 z m 44.08789,1.80079 c -9.2e-4,0.006 9.1e-4,0.009 0,0.0156 -0.0875,0.61878 -0.14409,1.45776 -0.16601,2.29492 -0.0219,0.83716 -0.0121,1.68063 0.043,2.30078 7.7e-4,0.009 -7.9e-4,0.0109 0,0.0195 0.0143,-0.004 0.0188,-0.006 0.0332,-0.01 0.92544,-0.26331 2.14972,-0.65546 3.35352,-1.0625 1.20371,-0.40705 2.39783,-0.83279 3.2539,-1.17188 0.0108,-0.004 0.0127,-0.006 0.0234,-0.01 -0.0105,-0.004 -0.0129,-0.007 -0.0234,-0.0117 -0.83789,-0.35547 -2.00758,-0.80621 -3.18945,-1.23633 -1.18187,-0.43012 -2.39155,-0.84197 -3.30274,-1.12305 -0.0101,-0.003 -0.0154,-0.003 -0.0254,-0.006 z m -42.71875,0.8496 v 3.42579 h 7.17383 v -3.42579 z m -46.05664,3.97071 0.72266,0.48047 c 1.87588,1.23538 3.79186,2.64665 5.56641,4.64257 l 0.14062,0.15625 0.082,0.19141 c 1.64512,3.74529 1.52865,7.69661 1.37305,11.44922 l -0.0234,0.5918 -0.46484,0.375 c -1.79842,1.46169 -4.36421,2.13008 -7.03516,2.16992 -2.67095,0.0398 -5.47505,-0.57519 -7.68359,-2.10938 l -0.53907,-0.36914 -0.0293,-0.6582 c -0.039,-0.93879 -0.0682,-1.88877 -0.0742,-2.8418 -0.0177,-2.86131 0.21342,-5.79843 1.44726,-8.60742 l 0.0879,-0.19141 0.13282,-0.15625 c 1.77419,-1.99554 3.69018,-3.40696 5.5664,-4.64257 z m -0.008,3.29297 c -1.44051,0.99075 -2.83543,2.02866 -4.11914,3.43359 -0.9448,2.24868 -1.21119,4.70035 -1.19531,7.33008 0.004,0.60887 0.0289,1.23679 0.0508,1.85937 1.56678,0.92416 3.56337,1.52829 5.58789,1.49805 1.98301,-0.0296 3.67581,-0.66337 4.83594,-1.41016 0.11629,-3.32883 0.1334,-6.5082 -1.04102,-9.29297 -1.2818,-1.40026 -2.68042,-2.42898 -4.11914,-3.41796 z m 141.72461,2.04492 c 5.78279,0 10.49805,4.72112 10.49805,10.5039 0,5.78279 -4.71526,10.49805 -10.49805,10.49805 -5.78278,0 -10.50391,-4.71526 -10.50391,-10.49805 0,-5.78278 4.72113,-10.5039 10.50391,-10.5039 z m -70.70313,0.1914 c 7.49496,0 13.58985,6.09489 13.58985,13.58985 0,7.49496 -6.09489,13.59765 -13.58985,13.59765 -7.49495,0 -13.59765,-6.10269 -13.59765,-13.59765 0,-7.49496 6.1027,-13.58985 13.59765,-13.58985 z m 0,2.17774 c -6.31886,-10e-6 -11.41992,5.09324 -11.41992,11.41211 0,6.31886 5.10106,11.41992 11.41992,11.41992 6.31886,0 11.41211,-5.10106 11.41211,-11.41992 0,-6.31887 -5.09325,-11.41211 -11.41211,-11.41211 z m 70.70313,0.35547 c -4.31006,0 -7.7793,3.46923 -7.7793,7.77929 0,4.31007 3.46924,7.77344 7.7793,7.77344 4.31006,0 7.77344,-3.46337 7.77344,-7.77344 0,-4.31006 -3.46338,-7.77929 -7.77344,-7.77929 z m -73.29492,2.04101 c 1.15651,0.26711 2.6704,0.71259 4.44922,1.2461 1.42362,0.4447 2.40008,1.06748 2.93359,1.77929 0.62229,0.71111 0.89132,1.60052 0.89062,3.02344 1e-5,1.33412 -0.35655,2.13251 -1.06835,2.66602 -0.71181,0.5335 -1.60096,0.5335 -2.66797,0 v -4.89063 c 0,-0.71181 -0.26819,-1.06654 -0.71289,-1.24414 -0.17762,-0.0888 -0.35458,-0.0897 -0.44336,0.0879 -0.1776,0.1783 -0.17774,0.35502 -0.17774,0.71094 v 12.36328 L 180.117,287.4844 Z m 39.28711,3.64258 c 9.11894,0 16.53515,7.41621 16.53515,16.53516 1e-5,9.11894 -7.4162,16.54297 -16.53515,16.54297 -9.11895,0 -16.54297,-7.42403 -16.54297,-16.54297 0,-9.11895 7.42402,-16.53516 16.54297,-16.53516 z m -73.10938,0.35352 c 9.11895,0 16.54297,7.42402 16.54297,16.54297 0,9.11894 -7.42402,16.53515 -16.54297,16.53515 -9.11894,0 -16.53515,-7.41621 -16.53515,-16.53515 0,-9.11895 7.41621,-16.54298 16.53515,-16.54297 z m 73.10938,2.28906 c -7.68912,0 -13.89258,6.20346 -13.89258,13.89258 0,7.68912 6.20346,13.89258 13.89258,13.89258 7.68912,0 13.89258,-6.20346 13.89258,-13.89258 -1e-5,-7.68912 -6.20346,-13.89258 -13.89258,-13.89258 z m -73.10938,0.35352 c -7.68912,-1e-5 -13.89258,6.21127 -13.89258,13.90039 0,7.68912 6.20346,13.89257 13.89258,13.89257 7.68912,0 13.89258,-6.20345 13.89258,-13.89257 0,-7.68912 -6.20346,-13.90039 -13.89258,-13.90039 z m 32.9336,2.61132 v 1.86719 l -2.04493,0.71289 c 0,0 -0.97899,0.3556 -1.24609,0.5332 -0.0888,0.0888 -0.0883,0.26772 0.26758,0.44532 0.3559,0.1776 0.71075,0.26475 3.11328,-0.53516 v 1.60352 c -2.49063,0.71112 -3.46757,0.53259 -4.71289,0.0879 -1.33411,-0.44471 -1.51278,-1.15791 -1.60156,-1.69141 0,-0.44471 0.53356,-0.88928 1.51171,-1.33398 l 0.6211,-0.26563 z m 9.05078,0.69336 c 0.86719,0.0292 1.73418,0.19595 2.60156,0.46289 1.06701,0.35591 1.68945,0.71134 1.68945,1.24414 0.0888,0.53351 -0.35681,0.97807 -1.42383,1.33399 l -0.5332,0.26758 -4.44726,1.60156 -1.59961,0.5332 v -1.86914 l 3.55664,-1.33203 0.97851,-0.35547 c 0.44471,-0.17762 0.62199,-0.26771 0.53321,-0.44531 0,-0.17828 -0.17822,-0.26758 -0.44532,-0.26758 0,0 -0.53186,-0.17671 -0.97656,-0.0879 -0.2671,0.0888 -0.71289,0.17773 -0.71289,0.17773 l -1.06641,0.35352 -1.95703,0.71289 v -1.86719 c 1.06772,-0.26711 1.95734,-0.44531 2.93555,-0.44531 0.28913,-0.0223 0.57813,-0.0274 0.86719,-0.0176 z"
         transform="scale(0.26458333)" />
      <path
         id="path862"
         style="display:inline;fill:#000000;fill-opacity:1;stroke:#00ffff;stroke-width:0.999999px;stroke-linecap:butt;stroke-linejoin:miter;stroke-opacity:1"
         d="m 112.07812,241.875 c -1.01079,-0.0151 -2.01627,0.1273 -2.96484,0.38867 -0.94857,0.26137 -1.84001,0.64082 -2.62305,1.10156 -0.0222,0.6251 -0.0466,1.25786 -0.0508,1.86915 -0.008,1.31628 0.0535,2.58646 0.23633,3.80859 0.18279,1.22213 0.48616,2.39606 0.95899,3.52148 1.28507,1.40642 2.68477,2.44003 4.12695,3.43164 1.43705,-0.98812 2.83089,-2.01907 4.11133,-3.41797 0.58721,-1.39238 0.87596,-2.88215 1.0039,-4.4414 0.12795,-1.55925 0.0953,-3.18715 0.0371,-4.85156 -0.58006,-0.3734 -1.29348,-0.71916 -2.10937,-0.97461 -0.81589,-0.25545 -1.73506,-0.42081 -2.72657,-0.43555 z"
         transform="scale(0.26458333)" />
    </g>
    <rect
       style="display:inline;fill:#000000;stroke:none;stroke-width:0.397203;stroke-linejoin:round;stroke-miterlimit:4;stroke-dasharray:none;stroke-opacity:1"
       id="rect1442"
       width="1.4699823"
       height="39.820248"
       x="87.61071"
       y="20.30691" />
    <text
       xml:space="preserve"
       style="font-style:normal;font-variant:normal;font-weight:bold;font-stretch:normal;font-size:61.7361px;line-height:1.25;font-family:Tahoma;-inkscape-font-specification:'Tahoma, Bold';font-variant-ligatures:normal;font-variant-caps:normal;font-variant-numeric:normal;font-variant-east-asian:normal;display:inline;fill:#9c6ce4;fill-opacity:1;stroke-width:0.265;stroke-miterlimit:4;stroke-dasharray:none"
       x="91.711525"
       y="56.584484"
       id="text1446"><tspan
         sodipodi:role="line"
         id="tspan1444"
         x="91.711525"
         y="56.584484"
         style="font-style:normal;font-variant:normal;font-weight:bold;font-stretch:normal;font-size:61.7361px;font-family:'neo latina';-inkscape-font-specification:'neo latina Bold';font-variant-ligatures:normal;font-variant-caps:normal;font-variant-numeric:normal;font-variant-east-asian:normal;fill:#9c6ce4;fill-opacity:1;stroke-width:0.265;stroke-miterlimit:4;stroke-dasharray:none">GL</tspan></text>
  </g>
</svg>
